# xmcd CD database file
#
# Track frame offsets:
#	150
#	17428
#	34919
#	52558
#	68201
#	89118
#	103024
#	120709
#	137988
#	155507
#	171137
#
# Disc length: 2640 seconds
#
# Revision: 0
# Processed by: cddbd v1.5.1PL0 Copyright (c) Steve Scherf et al.
# Submitted via: CDex 1.51
#
DISCID=8f0a4e0b
DTITLE=Blues Transfer - Back to the Roots
DYEAR=1998
DGENRE=Blues
TTITLE0=High heel sneaker
TTITLE1=Blow wind blow
TTITLE2=Trouble in mind
TTITLE3=The hunter
TTITLE4=Going down slow
TTITLE5=Downtown blues
TTITLE6=Walk on
TTITLE7=King bee
TTITLE8=Have a good time
TTITLE9=My babe
TTITLE10=Walking my blues away
EXTD=YEAR: 1998
EXTT0=
EXTT1=
EXTT2=
EXTT3=
EXTT4=
EXTT5=
EXTT6=
EXTT7=
EXTT8=
EXTT9=
EXTT10=
PLAYORDER=
